<svg height="512pt" viewBox="0 0 512 512" width="512pt" xmlns="http://www.w3.org/2000/svg"><path d="m361.144531 271c-8.289062 0-15.144531 6.855469-15.144531 15.144531 0 8.292969 6.855469 15.148438 15.144531 15.148438 8.292969 0 15.148438-6.855469 15.148438-15.148438 0-8.289062-6.855469-15.144531-15.148438-15.144531zm0 0"/><path d="m467 271h-7.832031c-4.816407-17.078125-12.230469-32.988281-22.144531-47.519531l40.429687-47.792969c5.035156-5.957031 4.667969-14.777344-.847656-20.292969-22.511719-22.511719-56.777344-28.089843-85.265625-13.882812l-11.257813 5.613281c-3.421875-1.785156-6.921875-3.464844-10.457031-5.082031 4.125-11.246094 6.375-23.386719 6.375-36.042969 0-58.066406-47.117188-106-105-106-57.835938 0-105 47.882812-105 106 0 12.648438 2.25 24.78125 6.367188 36.019531-67.289063 30.65625-110.253907 90.449219-111.339844 156.421875-17.847656-6.234375-31.027344-23.148437-31.027344-42.441406 0-8.285156-6.714844-15-15-15s-15 6.714844-15 15c0 37.453125 28.128906 68.230469 63.742188 73.996094 8.078124 42.683594 33.699218 82.066406 72.160156 109.832031.015625 7.257813.035156 17.464844.050781 27.246094.042969 24.773437 20.226563 44.925781 44.996094 44.925781h.992187c21.414063 0 39.308594-15.355469 43.25-35.636719 13.535156 3.652344 29.324219 5.636719 45.808594 5.636719 16.488281 0 32.277344-1.984375 45.8125-5.640625 3.871094 20.109375 21.601562 35.640625 43.261719 35.640625h.960937c24.78125 0 44.96875-20.160156 45-44.9375.011719-8.4375.023438-16.925781.039063-22.867188 16.933593-14.160156 31.476562-32.605468 41.917969-53.148437 5.953124-.03125 13.5625-.046875 19.007812-.046875 24.8125 0 45-20.1875 45-45v-30c0-24.8125-20.1875-45-45-45zm-196-241c41.355469 0 75 34.09375 75 76 0 41.355469-33.644531 75-75 75s-75-33.644531-75-75c0-41.90625 33.644531-76 75-76zm211 316c0 8.269531-6.730469 15-15 15-4.179688 0-25.222656.007812-29.195312.179688-5.71875.246093-10.800782 3.722656-13.097657 8.964843-9.585937 21.875-24.726562 41.339844-42.628906 54.808594-3.746094 2.816406-5.957031 7.222656-5.984375 11.90625-.019531 3.507813-.039062 16.902344-.058594 30.164063-.011718 8.257812-6.738281 14.976562-15 14.976562h-.960937c-7.777344 0-14.066407-6.296875-14.0625-14.074219.003906-6.261719.011719-11.230469.015625-12.890625.039062-11.332031-12.066406-18.609375-22.054688-13.28125-12.039062 6.414063-31.839844 10.246094-52.972656 10.246094-21.117188 0-40.910156-3.828125-52.949219-10.238281-9.957031-5.300781-22.050781 1.917969-22.050781 13.242187v12.933594c0 7.753906-6.304688 14.0625-14.058594 14.0625h-.992187c-8.253907 0-14.980469-6.71875-14.996094-14.972656-.023437-14.316406-.054687-29.53125-.074219-35.136719-.023437-5.011719-2.542968-9.679687-6.722656-12.445313-42.675781-28.253906-68.15625-72.53125-68.15625-118.445312 0-55.648438 37.171875-106.597656 95.667969-132.515625 3.3125 4.457031 6.96875 8.640625 10.929687 12.515625h-1.597656c-8.285156 0-15 6.714844-15 15s6.714844 15 15 15h150c8.285156 0 15-6.714844 15-15s-6.714844-15-15-15h-1.597656c3.960937-3.875 7.617187-8.058594 10.929687-12.515625 5.855469 2.597656 11.550781 5.46875 17.019531 8.585937 4.347657 2.476563 9.640626 2.625 14.121094.390626l18.253906-9.105469c12.703126-6.332031 27.34375-6.046875 39.511719.144531l-37.773437 44.660156c-4.628906 5.472656-4.742188 13.449219-.269532 19.050782 13.25 16.585937 22.164063 35.695312 26.496094 56.804687 1.433594 6.976563 7.574219 11.984375 14.695313 11.984375h19.613281c8.269531 0 15 6.726562 15 15zm0 0"/><path d="m271 151c24.8125 0 45-20.1875 45-45s-20.1875-45-45-45-45 20.1875-45 45 20.1875 45 45 45zm0-60c8.269531 0 15 6.730469 15 15s-6.730469 15-15 15-15-6.730469-15-15 6.730469-15 15-15zm0 0"/></svg>