<?xml version="1.0" encoding="UTF-8"?>
<svg width="425px" height="425px" viewBox="0 0 425 425" version="1.1" xmlns="http://www.w3.org/2000/svg" xmlns:xlink="http://www.w3.org/1999/xlink">
    <!-- Generator: Sketch 51.2 (57519) - http://www.bohemiancoding.com/sketch -->
    <title>moolah-logo-purple</title>
    <desc>Created with Sketch.</desc>
    <defs></defs>
    <g id="moolah-logo-purple" stroke="none" stroke-width="1" fill="none" fill-rule="evenodd">
        <g id="moolah-logo" transform="translate(20.000000, 17.000000)" fill="#4C4C9D" fill-rule="nonzero">
            <path d="M296,365.5 C294.84,368.03 293.79,370.2 292.85,372.41 C287.27,385.41 275.63,391.53 261.51,389.72 C250.27,388.27 242.22,380.86 240.18,369.72 C239.47,365.85 239.88,361.9 240.05,358 C240.45,348.6 240.97,339.21 241.43,329.81 C241.82,321.67 242.12,313.51 242.62,305.37 C242.75,303.37 242.37,303.07 240.5,303.59 C231.01,306.23 221.39,308.15 211.5,308.04 C205.87,307.98 205.87,307.98 203.77,313.25 C196.32,331.98 188.96,350.75 181.38,369.43 C177.77,378.3 171.1,383.83 161.63,385.73 C148.412011,388.374366 135.41578,380.286753 131.95,367.26 C131.15,364.26 130.53,361.26 129.68,357.63 C127.37,361.57 125.25,364.99 123.32,368.52 C119.55,375.41 114.2,380.41 106.51,382.52 C95.56,385.46 78.62,381.71 73.24,369.23 C70.9579809,364.186193 70.4060527,358.529808 71.67,353.14 C76.85,330.57 81.92,307.98 87.18,285.44 C88.0070091,282.830151 87.2733868,279.977175 85.29,278.09 C78.12,270.25 74.5,260.59 72.09,250.44 C69.96,241.5 69.09,232.44 68.42,223.24 C67.55,211.04 67.36,198.79 65.93,186.63 C65.66,184.28 65.11,183.2 62.29,183.49 C55.7793259,184.24826 49.1955922,182.928713 43.48,179.72 C42.8187188,179.366927 42.0884481,179.162178 41.34,179.12 C26.46,177.68 15.89,167 14.4,152.16 C13.9562724,147.269677 14.023301,142.34643 14.6,137.47 C15.6,128.09 20.6,121.05 27.6,115.21 C31.0786424,112.465208 34.274498,109.379901 37.14,106 C38.76,104 38.94,102.39 37.23,100.32 C31.0332858,92.9309777 26.8941856,84.0388107 25.23,74.54 C20.7,48.84 28,27.29 48.89,11 C54.46,6.65 60.89,4.22 68.19,4.79 C75.49,5.36 81,9.07 84.88,15.25 C85.09,15.59 85.32,15.92 85.72,16.53 C86.8761324,13.3333158 88.6118191,10.3772245 90.84,7.81 C98.18,0.09 109.14,-1.97 119.84,3.07 C134.65,10.07 147.61,19.61 157.45,32.9 C172.56,53.29 174.91,75.4 165.71,98.85 C164.85,101.06 165.1,102.1 167.14,103.44 C179.41,111.44 191.46,119.83 203.78,127.77 C220.65,138.65 238.69,146.91 258.58,150.57 C271.51,152.95 284.5,153.83 297.58,151.48 C298.58,151.3 299.5,151.21 300.01,150.09 C304.11,141.09 307.65,131.94 307.88,121.9 C308.03,115.26 305.73,110.04 299.78,106.12 C285.7,96.85 278.85,83.31 277.86,66.62 C277.33,57.55 278.63,48.62 280.7,39.9 C282.7,31.57 287.75,25.72 296.2,23.56 C304.65,21.4 311.86,23.66 317.43,30.17 C320.58,33.85 324.48,36.17 328.54,38.46 C340.54,45.23 347.92,55.26 349.86,69.04 C350.362269,73.3430577 350.409196,77.6870962 350,82 C349.916453,83.8277412 350.294764,85.6470719 351.1,87.29 C357.43,101.59 361.84,116.39 361.42,132.21 C361.13,143.07 358.8,153.67 356.33,164.21 C355.71546,166.546304 355.261071,168.921823 354.97,171.32 C354.3,178.44 356.56,184.52 360.81,190.15 C366.28,197.4 371.81,204.58 376.73,212.24 C384.05,223.67 386.12,235.89 383.37,249.08 C381.02,260.33 376.45,270.81 372.23,281.4 C372.07,281.79 371.93,282.18 371.74,282.56 C369.84,286.4 369.29,289.93 371.33,294.28 C374.18,300.33 372.88,306.85 370.89,313.07 C368.65,320.07 365.52,326.71 362.62,333.44 C357.361819,345.695861 353.01665,358.323591 349.62,371.22 C346.62,382.58 336.97,389.6 325.2,389.6 C318.49,389.6 312.07,388.71 306.51,384.52 C301.350337,380.71795 297.877469,375.053015 296.83,368.73 C296.68,367.91 296.54,367.09 296.38,366.27 C296.276109,366.002708 296.148955,365.745052 296,365.5 Z M281.15,173.1 C275.636137,173.17618 270.12425,172.841924 264.66,172.1 C245.268569,169.673691 226.487298,163.708155 209.25,154.5 C193.55,146.29 179.25,135.95 164.62,126.02 C157.04,120.86 149.39,115.81 140.68,112.66 C137.14,111.38 136.68,110.07 138.68,106.89 C142.227633,101.438014 145.158926,95.6089667 147.42,89.51 C152.05,76.57 152,63.84 145.24,51.59 C137.47,37.53 125.24,28.43 111.15,21.49 C109.996271,20.9744832 108.715126,20.81434 107.47,21.03 C105.65,21.27 105.08,22.48 106.05,24.03 C106.473075,24.648322 106.962666,25.2183946 107.51,25.73 C113.864094,32.1717878 118.481268,40.1193828 120.93,48.83 C123.27,57.29 123.63,65.75 120.52,74.12 C117.52,82.24 110.31,88.05 102.94,87.94 C99.53,87.88 96.14,88.1 92.73,88.04 C89.1333736,87.9855357 85.6057625,87.0443814 82.46,85.3 C75.13,81.3 71.46,74.59 69.12,67.01 C66,57.05 66,46.74 66.75,36.38 C66.96,33.56 67.34,30.75 67.45,27.92 C67.56,25.09 66.74,24.69 64.11,25.7 C62.1767664,26.4831335 60.3963172,27.6001453 58.85,29 C42.0745787,43.7439055 39.3523513,68.8648113 52.58,86.86 C53.9312709,88.6577529 55.1895856,90.5235299 56.35,92.45 C60.35,99.13 60.65,105.91 56.91,112.86 C53.07,120 47.25,125.34 41.21,130.48 C34.5090462,136.424155 32.4224751,146.019956 36.05,154.21 C37.0977476,156.949091 39.8029133,158.69044 42.73,158.51 C44.5655676,158.469376 46.3824334,158.131669 48.11,157.51 C49.11,157.18 50.11,156.9 50.59,158.26 C52,162 55,162.93 58.58,163 C63.38,163.13 68.01,162.09 72.69,161.29 C75.8096575,160.567599 79.0217661,162.054228 80.49,164.9 C82.8036853,168.964764 84.3685261,173.412028 85.11,178.03 C87.66,191.41 87.64,205.03 88.58,218.55 C89.31,229.1 90.13,239.65 93.06,249.87 C95.49,258.35 99.41,265.78 107.61,270.21 C110.27,271.64 110.77,273.33 110.09,276.33 C104.97,298.823333 99.8433333,321.313333 94.71,343.8 C93.71,348.19 92.71,352.56 91.71,356.96 C91.3,358.96 90.94,361.32 93.56,361.96 C100.43,363.63 102.37,363.74 105.74,357.96 C115.52,341.1 125.376667,324.283333 135.31,307.51 C135.87,306.51 136.31,305.08 137.72,305.33 C139.13,305.58 139.04,307.08 139.4,308.15 C139.488606,308.478568 139.555418,308.812628 139.6,309.15 C143.5,326.276667 147.403333,343.406667 151.31,360.54 C152.08,363.92 153.44,365.29 156.06,365.54 C159.18,365.78 161.17,364.54 162.52,361.54 C163.22,359.94 163.86,358.31 164.52,356.69 C173.68,333.696667 182.833333,310.696667 191.98,287.69 C193.48,283.91 194.65,283.43 198.48,284.87 C200.968333,285.824938 203.543853,286.534964 206.17,286.99 C215.01,288.47 223.59,286.85 232.11,284.74 C241.5,282.41 250.61,279.17 259.79,276.17 C262.92,275.17 264.58,276.39 264.42,279.51 C263.82,290.9 263.19,302.28 262.64,313.67 C261.806667,330.796667 261.003333,347.923333 260.23,365.05 C260.13,367.05 260.78,369.05 262.92,369.25 C268.49,369.85 271.58,370.06 274.2,364.18 C280.2,350.72 286.32,337.3 292.4,323.87 C295.46,317.12 298.5,310.36 301.62,303.63 C303.05,300.56 305.14,300.12 307.82,302.2 C309.913118,303.788052 311.241493,306.183482 311.48,308.8 C312.57,319.56 313.55,330.34 314.61,341.11 C315.39,349.063333 316.213333,357.006667 317.08,364.94 C317.35,367.47 318.79,368.74 321.37,368.94 C322.45,369.03 323.53,369.03 324.62,369.05 C328.36,369.1 329.51,368.27 330.41,364.61 C333.844976,351.207695 338.366612,338.107658 343.93,325.44 C346.77,318.78 349.93,312.24 351.93,305.24 C352.84702,302.755232 352.211802,299.963407 350.31,298.12 C348.01,295.77 347.57,292.91 348.12,289.78 C349.078549,285.126921 350.498915,280.581078 352.36,276.21 C356,267 360,258 362.56,248.51 C365.31,238.51 364.28,229.37 358.05,220.75 C353.51,214.47 348.86,208.27 344.23,202.06 C335.14,189.9 332.23,176.51 335.89,161.7 C336.89,157.7 337.81,153.6 338.67,149.53 C341.03,138.26 342.04,126.98 339.34,115.6 C337.43905,107.658859 334.682954,99.9471554 331.12,92.6 C329.423275,88.8709761 328.883371,84.7189398 329.57,80.68 C331.06,68.98 327.57,60.98 317.89,55.94 C316.19,55.05 314.58,54 312.89,53.02 C309.162725,50.951706 305.882759,48.1645842 303.24,44.82 C302.81,44.23 302.39,43.41 301.55,43.51 C300.49,43.64 300.47,44.71 300.32,45.51 C299.03,52.05 297.69,58.61 298.12,65.31 C298.78,75.71 302.85,84.31 311.96,89.99 C313.906872,91.1127039 315.718688,92.4547904 317.36,93.99 C327.14,103.79 329.51,115.87 327.84,128.99 C326.17,142.11 320.94,154.31 314.9,166.07 C313.764223,168.453362 311.512926,170.111817 308.9,170.49 C299.77,171.82 290.66,173.49 281.15,173.1 Z M87.9,33.88 C87.3392939,35.0095199 87.064581,36.2594636 87.1,37.52 C86.98,40.17 86.71,42.83 86.75,45.52 C86.85,51.67 87.06,57.83 89.56,63.61 C91.31,67.61 91.56,67.77 95.87,67.5 C96.9487017,67.4251089 98.0312983,67.4251089 99.11,67.5 C100.89,67.65 101.63,66.78 101.98,65.14 C103.11,59.74 101.54,54.81 99.62,49.88 C97.15,43.49 91.58,39.58 87.9,33.88 Z" id="Shape"></path>
            <path d="M0.89,161.1 C4.33,164.71 7.89,168.1 11.05,171.82 C17.25,179.15 24.51,185.44 30.9,192.56 C38.55,201.09 46.9,208.82 56.83,214.71 C57.9304044,215.351513 58.5878132,216.547152 58.54,217.82 C58.77,224.06 59.32,230.28 60.01,236.48 C60.29,238.99 59.76,239.34 57.42,238.22 C45.5155519,232.543052 34.5918934,225.005187 25.06,215.89 C24.42,215.28 23.94,214.44 22.81,214.15 C22.19,217.02 22.93,219.79 23.24,222.52 C26.5232287,252.887932 38.908019,281.554556 58.77,304.76 C61.8029502,308.414503 65.0591748,311.87779 68.52,315.13 C69.6364954,316.030099 70.0819854,317.525673 69.64,318.89 C68.24,324.72 66.95,330.58 65.64,336.42 C65.04,339.02 64.74,339.16 62.72,337.42 C29.6086529,309.219011 8.31558411,269.595698 3.07,226.42 C2.07,218.32 1.9,210.15 1.56,202.01 C1.03,189.12 0.75,176.21 0.38,163.31 C0.34,162.67 6.10622664e-16,161.89 0.89,161.1 Z" id="Shape"></path>
            <path d="M167.77,30.63 C172.77,31.33 177.15,31.95 181.49,32.53 C208.27,36.12 233.49,44.62 257.34,57.16 C260.34,58.7 263.15,60.41 266.06,62.04 C267.298467,62.5830721 268.107044,63.79789 268.13,65.15 C268.5,74.31 270.26,83.15 274.44,91.41 C274.598427,91.8952886 274.712233,92.3940239 274.78,92.9 C256.92045,78.9274767 236.72911,68.2257956 215.14,61.29 C214.6,62.29 215.33,62.83 215.68,63.41 C225.331756,79.3603445 231.233618,97.295029 232.94,115.86 C233.48163,120.579355 233.668821,125.332666 233.5,130.08 C233.37,132.5 233.04,132.73 230.8,131.67 C225.45,129.14 220.19,126.46 215.08,123.48 C213.729075,122.837585 212.849498,121.495073 212.8,120 C211.26,100.91 205.31,83.35 194.05,67.78 C188.05,59.49 181.72,51.43 175.49,43.3 C172.6,39.5 170.69,35.18 167.77,30.63 Z" id="Shape"></path>
            <path d="M231,350 C230.68,356.26 230.15,362.06 230.35,367.89 C230.41,369.41 229.35,369.64 228.35,369.98 C219.496828,372.918039 210.411151,375.102482 201.19,376.51 C197.58,377.07 193.93,377.42 190.31,377.9 C188.67,378.11 188.08,377.74 188.9,376.03 C191.63,370.41 193.64,364.48 195.95,358.69 C196.360835,357.328779 197.538297,356.339712 198.95,356.17 C209.155862,354.570926 219.162327,351.889127 228.8,348.17 C231.6,347.11 230.92,349.12 231,350 Z" id="Shape"></path>
        </g>
    </g>
</svg>